G04*
G04 #@! TF.GenerationSoftware,Altium Limited,Altium Designer,18.1.9 (240)*
G04*
G04 Layer_Color=255*
%FSLAX25Y25*%
%MOIN*%
G70*
G01*
G75*
%ADD42C,0.06000*%
%ADD43O,0.05937X0.11874*%
%ADD44O,0.11874X0.05937*%
%ADD45C,0.07874*%
%ADD46R,0.07874X0.07874*%
%ADD47C,0.05906*%
%ADD48R,0.05906X0.05906*%
%ADD49R,0.05906X0.05906*%
D42*
X10000Y10000D02*
D03*
X190000Y220000D02*
D03*
X120000Y30000D02*
D03*
X190000D02*
D03*
Y10000D02*
D03*
X10500Y220000D02*
D03*
D43*
X15996Y186343D02*
D03*
D44*
X34500Y198153D02*
D03*
Y174531D02*
D03*
D45*
X51591Y158500D02*
D03*
D46*
X10409D02*
D03*
D47*
X68060Y70500D02*
D03*
X58060D02*
D03*
X48060D02*
D03*
X38060D02*
D03*
X68060Y40500D02*
D03*
X58060D02*
D03*
X48060D02*
D03*
X115000Y81000D02*
D03*
Y91000D02*
D03*
Y101000D02*
D03*
Y111000D02*
D03*
Y121000D02*
D03*
Y131000D02*
D03*
Y141000D02*
D03*
Y151000D02*
D03*
Y161000D02*
D03*
Y171000D02*
D03*
Y181000D02*
D03*
X195000Y41000D02*
D03*
Y51000D02*
D03*
Y61000D02*
D03*
Y71000D02*
D03*
Y81000D02*
D03*
Y91000D02*
D03*
Y101000D02*
D03*
Y111000D02*
D03*
Y121000D02*
D03*
Y131000D02*
D03*
Y141000D02*
D03*
Y151000D02*
D03*
Y161000D02*
D03*
Y171000D02*
D03*
Y181000D02*
D03*
X41500Y12000D02*
D03*
X51500D02*
D03*
X61500D02*
D03*
X71500D02*
D03*
X81500D02*
D03*
D48*
X38060Y40500D02*
D03*
X115000Y191000D02*
D03*
X195000D02*
D03*
D49*
X91500Y12000D02*
D03*
M02*
