M48
;Layer_Color=9474304
;FILE_FORMAT=2:5
INCH,LZ
;TYPE=PLATED
T1F00S00C0.01201
T2F00S00C0.03543
T3F00S00C0.03937
T4F00S00C0.04724
;TYPE=NON_PLATED
T5F00S00C0.10000
%
T01
X0068Y00185
X006806Y0035554
X0087374Y00495
X0099Y007824
X00815Y0126
X0062012Y0116996
X0058Y02065
T02
X0195Y0041
Y0051
Y0061
X006806Y00405
X005806
X004806
X003806
X00415Y0012
X00515
X00615
X00715
X00815
X00915
X006806Y00705
X005806
X004806
X003806
X0115Y0081
Y0091
Y0101
Y0111
Y0121
Y0131
Y0141
Y0151
Y0161
Y0171
Y0181
Y0191
X0195
Y0181
Y0171
Y0161
Y0151
Y0141
Y0131
Y0121
Y0111
Y0101
Y0091
Y0081
Y0071
T03
X0015996Y0186343
X00345Y0174531
Y0198153
T04
X0010409Y01585
X0051591
T05
X019Y001
Y003
X012
X001Y001
X00105Y022
X019
M30
