G04*
G04 #@! TF.GenerationSoftware,Altium Limited,Altium Designer,18.1.9 (240)*
G04*
G04 Layer_Physical_Order=2*
G04 Layer_Color=16711680*
%FSLAX25Y25*%
%MOIN*%
G70*
G01*
G75*
%ADD41C,0.01500*%
%ADD42C,0.06000*%
%ADD43O,0.05937X0.11874*%
%ADD44O,0.11874X0.05937*%
%ADD45C,0.07874*%
%ADD46R,0.07874X0.07874*%
%ADD47C,0.05906*%
%ADD48R,0.05906X0.05906*%
%ADD49R,0.05906X0.05906*%
%ADD50C,0.02402*%
G36*
X105000Y74840D02*
X104538Y74649D01*
X101867Y77320D01*
X101924Y77457D01*
X101961Y77740D01*
X99500D01*
Y75279D01*
X99783Y75317D01*
X99920Y75373D01*
X105000Y70294D01*
Y10500D01*
X104500Y10000D01*
X96500D01*
Y16879D01*
X96379Y17000D01*
X71077D01*
X70799Y17416D01*
X70924Y17717D01*
X70961Y18000D01*
X65039D01*
X65077Y17717D01*
X65201Y17416D01*
X64923Y17000D01*
X36500D01*
Y10000D01*
X15648D01*
X15456Y11462D01*
X14892Y12824D01*
X13994Y13994D01*
X12824Y14892D01*
X11462Y15456D01*
X10000Y15648D01*
Y153963D01*
X14946D01*
Y163037D01*
X10000D01*
Y214038D01*
X10376Y214368D01*
X10500Y214352D01*
X11962Y214544D01*
X13324Y215108D01*
X14494Y216006D01*
X15392Y217176D01*
X15956Y218538D01*
X16148Y220000D01*
X105000D01*
Y74840D01*
D02*
G37*
%LPC*%
G36*
X58500Y209461D02*
Y207000D01*
X60961D01*
X60923Y207283D01*
X60621Y208013D01*
X60140Y208640D01*
X59513Y209121D01*
X58783Y209423D01*
X58500Y209461D01*
D02*
G37*
G36*
X57500D02*
X57217Y209423D01*
X56487Y209121D01*
X55860Y208640D01*
X55379Y208013D01*
X55076Y207283D01*
X55039Y207000D01*
X57500D01*
Y209461D01*
D02*
G37*
G36*
X60961Y206000D02*
X58500D01*
Y203539D01*
X58783Y203576D01*
X59513Y203879D01*
X60140Y204360D01*
X60621Y204987D01*
X60923Y205717D01*
X60961Y206000D01*
D02*
G37*
G36*
X57500D02*
X55039D01*
X55076Y205717D01*
X55379Y204987D01*
X55860Y204360D01*
X56487Y203879D01*
X57217Y203576D01*
X57500Y203539D01*
Y206000D01*
D02*
G37*
G36*
X37468Y202963D02*
X35000D01*
Y198654D01*
X42212D01*
X42114Y199398D01*
X41634Y200558D01*
X40870Y201554D01*
X39873Y202319D01*
X38713Y202799D01*
X37468Y202963D01*
D02*
G37*
G36*
X34000D02*
X31532D01*
X30287Y202799D01*
X29127Y202319D01*
X28130Y201554D01*
X27366Y200558D01*
X26886Y199398D01*
X26788Y198654D01*
X34000D01*
Y202963D01*
D02*
G37*
G36*
X42212Y197654D02*
X35000D01*
Y193344D01*
X37468D01*
X38713Y193508D01*
X39873Y193988D01*
X40870Y194753D01*
X41634Y195749D01*
X42114Y196909D01*
X42212Y197654D01*
D02*
G37*
G36*
X34000D02*
X26788D01*
X26886Y196909D01*
X27366Y195749D01*
X28130Y194753D01*
X29127Y193988D01*
X30287Y193508D01*
X31532Y193344D01*
X34000D01*
Y197654D01*
D02*
G37*
G36*
X15996Y192910D02*
X15065Y192788D01*
X14196Y192428D01*
X13451Y191856D01*
X12879Y191111D01*
X12519Y190243D01*
X12397Y189311D01*
Y183374D01*
X12519Y182442D01*
X12879Y181574D01*
X13451Y180829D01*
X14196Y180257D01*
X15065Y179897D01*
X15996Y179775D01*
X16928Y179897D01*
X17796Y180257D01*
X18541Y180829D01*
X19113Y181574D01*
X19473Y182442D01*
X19595Y183374D01*
Y189311D01*
X19473Y190243D01*
X19113Y191111D01*
X18541Y191856D01*
X17796Y192428D01*
X16928Y192788D01*
X15996Y192910D01*
D02*
G37*
G36*
X43000Y179897D02*
X26623D01*
X26500Y179775D01*
Y169000D01*
X43000D01*
Y179897D01*
D02*
G37*
G36*
X52091Y164221D02*
Y159000D01*
X57311D01*
X57180Y159998D01*
X56602Y161393D01*
X55682Y162592D01*
X54484Y163511D01*
X53088Y164089D01*
X52091Y164221D01*
D02*
G37*
G36*
X51091Y164221D02*
X50093Y164089D01*
X48697Y163511D01*
X47499Y162592D01*
X46579Y161393D01*
X46001Y159998D01*
X45870Y159000D01*
X51091D01*
Y164221D01*
D02*
G37*
G36*
X57311Y158000D02*
X52091D01*
Y152779D01*
X53088Y152911D01*
X54484Y153489D01*
X55682Y154408D01*
X56602Y155607D01*
X57180Y157002D01*
X57311Y158000D01*
D02*
G37*
G36*
X51091D02*
X45870D01*
X46001Y157002D01*
X46579Y155607D01*
X47499Y154408D01*
X48697Y153489D01*
X50093Y152911D01*
X51091Y152779D01*
Y158000D01*
D02*
G37*
G36*
X82000Y128961D02*
Y126500D01*
X84461D01*
X84424Y126783D01*
X84121Y127513D01*
X83640Y128140D01*
X83013Y128621D01*
X82283Y128923D01*
X82000Y128961D01*
D02*
G37*
G36*
X81000D02*
X80717Y128923D01*
X79987Y128621D01*
X79360Y128140D01*
X78879Y127513D01*
X78576Y126783D01*
X78539Y126500D01*
X81000D01*
Y128961D01*
D02*
G37*
G36*
X84461Y125500D02*
X82000D01*
Y123039D01*
X82283Y123076D01*
X83013Y123379D01*
X83640Y123860D01*
X84121Y124487D01*
X84424Y125217D01*
X84461Y125500D01*
D02*
G37*
G36*
X81000D02*
X78539D01*
X78576Y125217D01*
X78879Y124487D01*
X79360Y123860D01*
X79987Y123379D01*
X80717Y123076D01*
X81000Y123039D01*
Y125500D01*
D02*
G37*
G36*
X62512Y119957D02*
Y117496D01*
X64973D01*
X64935Y117779D01*
X64633Y118509D01*
X64152Y119136D01*
X63525Y119617D01*
X62795Y119920D01*
X62512Y119957D01*
D02*
G37*
G36*
X61512D02*
X61229Y119920D01*
X60498Y119617D01*
X59872Y119136D01*
X59391Y118509D01*
X59088Y117779D01*
X59051Y117496D01*
X61512D01*
Y119957D01*
D02*
G37*
G36*
X64973Y116496D02*
X62512D01*
Y114035D01*
X62795Y114073D01*
X63525Y114375D01*
X64152Y114856D01*
X64633Y115483D01*
X64935Y116213D01*
X64973Y116496D01*
D02*
G37*
G36*
X61512D02*
X59051D01*
X59088Y116213D01*
X59391Y115483D01*
X59872Y114856D01*
X60498Y114375D01*
X61229Y114073D01*
X61512Y114035D01*
Y116496D01*
D02*
G37*
G36*
X99500Y81201D02*
Y78740D01*
X101961D01*
X101924Y79023D01*
X101621Y79754D01*
X101140Y80380D01*
X100513Y80861D01*
X99783Y81164D01*
X99500Y81201D01*
D02*
G37*
G36*
X98500D02*
X98217Y81164D01*
X97487Y80861D01*
X96860Y80380D01*
X96379Y79754D01*
X96077Y79023D01*
X96039Y78740D01*
X98500D01*
Y81201D01*
D02*
G37*
G36*
Y77740D02*
X96039D01*
X96077Y77457D01*
X96379Y76727D01*
X96860Y76100D01*
X97487Y75619D01*
X98217Y75317D01*
X98500Y75279D01*
Y77740D01*
D02*
G37*
G36*
X87874Y52461D02*
Y50000D01*
X90335D01*
X90298Y50283D01*
X89995Y51013D01*
X89514Y51640D01*
X88887Y52121D01*
X88157Y52424D01*
X87874Y52461D01*
D02*
G37*
G36*
X86874D02*
X86591Y52424D01*
X85861Y52121D01*
X85234Y51640D01*
X84753Y51013D01*
X84451Y50283D01*
X84413Y50000D01*
X86874D01*
Y52461D01*
D02*
G37*
G36*
X90335Y49000D02*
X87874D01*
Y46539D01*
X88157Y46576D01*
X88887Y46879D01*
X89514Y47360D01*
X89995Y47987D01*
X90298Y48717D01*
X90335Y49000D01*
D02*
G37*
G36*
X86874D02*
X84413D01*
X84451Y48717D01*
X84753Y47987D01*
X85234Y47360D01*
X85861Y46879D01*
X86591Y46576D01*
X86874Y46539D01*
Y49000D01*
D02*
G37*
G36*
X73469Y75000D02*
X33000D01*
X32500Y36500D01*
X64697D01*
X65049Y36054D01*
X71071D01*
X71423Y36500D01*
X73500D01*
Y74969D01*
X73469Y75000D01*
D02*
G37*
G36*
X71021Y35054D02*
X68560D01*
Y32593D01*
X68843Y32631D01*
X69573Y32933D01*
X70200Y33414D01*
X70681Y34041D01*
X70983Y34771D01*
X71021Y35054D01*
D02*
G37*
G36*
X67560D02*
X65099D01*
X65136Y34771D01*
X65439Y34041D01*
X65920Y33414D01*
X66547Y32933D01*
X67277Y32631D01*
X67560Y32593D01*
Y35054D01*
D02*
G37*
G36*
X68500Y21461D02*
Y19000D01*
X70961D01*
X70924Y19283D01*
X70621Y20013D01*
X70140Y20640D01*
X69513Y21121D01*
X68783Y21423D01*
X68500Y21461D01*
D02*
G37*
G36*
X67500D02*
X67217Y21423D01*
X66487Y21121D01*
X65860Y20640D01*
X65379Y20013D01*
X65077Y19283D01*
X65039Y19000D01*
X67500D01*
Y21461D01*
D02*
G37*
%LPD*%
D41*
X194500Y70500D02*
X195000Y71000D01*
X106740Y70500D02*
X194500D01*
X99000Y78240D02*
X106740Y70500D01*
X33000Y199531D02*
Y200122D01*
D42*
X10000Y10000D02*
D03*
X190000Y220000D02*
D03*
X120000Y30000D02*
D03*
X190000D02*
D03*
Y10000D02*
D03*
X10500Y220000D02*
D03*
D43*
X15996Y186343D02*
D03*
D44*
X34500Y198153D02*
D03*
Y174531D02*
D03*
D45*
X51591Y158500D02*
D03*
D46*
X10409D02*
D03*
D47*
X68060Y70500D02*
D03*
X58060D02*
D03*
X48060D02*
D03*
X38060D02*
D03*
X68060Y40500D02*
D03*
X58060D02*
D03*
X48060D02*
D03*
X115000Y81000D02*
D03*
Y91000D02*
D03*
Y101000D02*
D03*
Y111000D02*
D03*
Y121000D02*
D03*
Y131000D02*
D03*
Y141000D02*
D03*
Y151000D02*
D03*
Y161000D02*
D03*
Y171000D02*
D03*
Y181000D02*
D03*
X195000Y41000D02*
D03*
Y51000D02*
D03*
Y61000D02*
D03*
Y71000D02*
D03*
Y81000D02*
D03*
Y91000D02*
D03*
Y101000D02*
D03*
Y111000D02*
D03*
Y121000D02*
D03*
Y131000D02*
D03*
Y141000D02*
D03*
Y151000D02*
D03*
Y161000D02*
D03*
Y171000D02*
D03*
Y181000D02*
D03*
X41500Y12000D02*
D03*
X51500D02*
D03*
X61500D02*
D03*
X71500D02*
D03*
X81500D02*
D03*
D48*
X38060Y40500D02*
D03*
X115000Y191000D02*
D03*
X195000D02*
D03*
D49*
X91500Y12000D02*
D03*
D50*
X68060Y35554D02*
D03*
X87374Y49500D02*
D03*
X68000Y18500D02*
D03*
X99000Y78240D02*
D03*
X58000Y206500D02*
D03*
X81500Y126000D02*
D03*
X62012Y116996D02*
D03*
M02*
