G04*
G04 #@! TF.GenerationSoftware,Altium Limited,Altium Designer,18.1.9 (240)*
G04*
G04 Layer_Color=16711935*
%FSLAX25Y25*%
%MOIN*%
G70*
G01*
G75*
%ADD15C,0.00500*%
%ADD52C,0.00394*%
D15*
X16783Y228468D02*
X52217D01*
X16783Y171776D02*
X52217D01*
Y228468D01*
X16783Y171776D02*
Y228468D01*
X52217D01*
X16783Y171776D02*
X52217D01*
Y228468D01*
X16783Y171776D02*
Y228468D01*
D52*
X38296Y44870D02*
G03*
X38296Y44870I-1969J0D01*
G01*
X73335Y41327D02*
Y69673D01*
X32784Y41327D02*
Y69673D01*
X73335D01*
X32784Y41327D02*
X73335D01*
X89244Y53154D02*
Y59847D01*
X85504Y53154D02*
Y59847D01*
X89244D01*
X85504Y53154D02*
X89244D01*
X48926Y81370D02*
X55619D01*
X48926Y77630D02*
X55619D01*
X48926D02*
Y81370D01*
X55619Y77630D02*
Y81370D01*
X94508Y74579D02*
Y81665D01*
X81122Y74579D02*
Y81665D01*
Y74579D02*
X94508D01*
X81122Y81665D02*
X94508D01*
X38153Y29870D02*
X44846D01*
X38153Y26130D02*
X44846D01*
X38153D02*
Y29870D01*
X44846Y26130D02*
Y29870D01*
X65153Y77598D02*
Y81339D01*
X71846Y77598D02*
Y81339D01*
X65153D02*
X71846D01*
X65153Y77598D02*
X71846D01*
X59346Y26130D02*
Y29870D01*
X52653Y26130D02*
Y29870D01*
Y26130D02*
X59346D01*
X52653Y29870D02*
X59346D01*
M02*
