G04*
G04 #@! TF.GenerationSoftware,Altium Limited,Altium Designer,18.1.9 (240)*
G04*
G04 Layer_Color=8388736*
%FSLAX25Y25*%
%MOIN*%
G70*
G01*
G75*
%ADD24R,0.04634X0.11524*%
%ADD25R,0.41839X0.27469*%
%ADD26R,0.13886X0.07587*%
%ADD27R,0.20579X0.18807*%
%ADD28R,0.04043X0.03256*%
%ADD29R,0.03256X0.04043*%
%ADD30R,0.04831X0.07193*%
%ADD31C,0.06500*%
%ADD32O,0.06437X0.12374*%
%ADD33O,0.12374X0.06437*%
%ADD34C,0.08374*%
%ADD35R,0.08374X0.08374*%
%ADD36C,0.06406*%
%ADD37R,0.06406X0.06406*%
%ADD38R,0.06406X0.06406*%
%ADD39C,0.02902*%
D24*
X68114Y134591D02*
D03*
X74807D02*
D03*
X81500D02*
D03*
X88193D02*
D03*
X94886D02*
D03*
D25*
X81500Y175339D02*
D03*
D26*
X92811Y206500D02*
D03*
X69189D02*
D03*
X92130Y110500D02*
D03*
X68508D02*
D03*
D27*
X31500Y102374D02*
D03*
Y136626D02*
D03*
D28*
X87374Y59453D02*
D03*
Y53547D02*
D03*
D29*
X49320Y79500D02*
D03*
X55225D02*
D03*
X38547Y28000D02*
D03*
X44453D02*
D03*
X65547Y79469D02*
D03*
X71453D02*
D03*
X58953Y28000D02*
D03*
X53047D02*
D03*
D30*
X93130Y78122D02*
D03*
X82500D02*
D03*
D31*
X10000Y10000D02*
D03*
X190000Y220000D02*
D03*
X120000Y30000D02*
D03*
X190000D02*
D03*
Y10000D02*
D03*
X10500Y220000D02*
D03*
D32*
X15996Y186343D02*
D03*
D33*
X34500Y198153D02*
D03*
Y174531D02*
D03*
D34*
X51591Y158500D02*
D03*
D35*
X10409D02*
D03*
D36*
X68060Y70500D02*
D03*
X58060D02*
D03*
X48060D02*
D03*
X38060D02*
D03*
X68060Y40500D02*
D03*
X58060D02*
D03*
X48060D02*
D03*
X115000Y81000D02*
D03*
Y91000D02*
D03*
Y101000D02*
D03*
Y111000D02*
D03*
Y121000D02*
D03*
Y131000D02*
D03*
Y141000D02*
D03*
Y151000D02*
D03*
Y161000D02*
D03*
Y171000D02*
D03*
Y181000D02*
D03*
X195000Y41000D02*
D03*
Y51000D02*
D03*
Y61000D02*
D03*
Y71000D02*
D03*
Y81000D02*
D03*
Y91000D02*
D03*
Y101000D02*
D03*
Y111000D02*
D03*
Y121000D02*
D03*
Y131000D02*
D03*
Y141000D02*
D03*
Y151000D02*
D03*
Y161000D02*
D03*
Y171000D02*
D03*
Y181000D02*
D03*
X41500Y12000D02*
D03*
X51500D02*
D03*
X61500D02*
D03*
X71500D02*
D03*
X81500D02*
D03*
D37*
X38060Y40500D02*
D03*
X115000Y191000D02*
D03*
X195000D02*
D03*
D38*
X91500Y12000D02*
D03*
D39*
X68060Y35554D02*
D03*
X87374Y49500D02*
D03*
X68000Y18500D02*
D03*
X99000Y78240D02*
D03*
X58000Y206500D02*
D03*
X81500Y126000D02*
D03*
X62012Y116996D02*
D03*
M02*
