G04*
G04 #@! TF.GenerationSoftware,Altium Limited,Altium Designer,18.1.9 (240)*
G04*
G04 Layer_Color=2752767*
%FSLAX25Y25*%
%MOIN*%
G70*
G01*
G75*
%ADD10C,0.00000*%
%ADD11C,0.00200*%
%ADD12C,0.00267*%
%ADD13C,0.01000*%
%ADD14C,0.00600*%
D10*
X17965Y183193D02*
Y189492D01*
X14028D02*
X17965D01*
X14028Y183193D02*
Y189492D01*
Y183193D02*
X17965D01*
X31350Y200122D02*
X37650D01*
X31350Y196185D02*
Y200122D01*
Y196185D02*
X37650D01*
Y200122D01*
X31350Y176500D02*
X37650D01*
X31350Y172563D02*
Y176500D01*
Y172563D02*
X37650D01*
Y176500D01*
D11*
X9200Y9200D02*
Y10800D01*
X10800D01*
Y9200D01*
X9200D01*
X189200Y219200D02*
Y220800D01*
X190800D01*
Y219200D01*
X189200D01*
X119200Y29200D02*
Y30800D01*
X120800D01*
Y29200D01*
X119200D01*
X189200D02*
Y30800D01*
X190800D01*
Y29200D01*
X189200D01*
X51591Y157700D02*
X50791Y159300D01*
X52390D01*
X51591Y157700D01*
X10409D02*
X9609Y159300D01*
X11209D01*
X10409Y157700D01*
X68060Y69700D02*
X68460Y70100D01*
X68860D01*
X68460Y70500D01*
X68860Y70900D01*
X68460D01*
X68060Y71300D01*
X67660Y70900D01*
X67260D01*
X67660Y70500D01*
X67260Y70100D01*
X67660D01*
X68060Y69700D01*
X58060D02*
X58460Y70100D01*
X58860D01*
X58460Y70500D01*
X58860Y70900D01*
X58460D01*
X58060Y71300D01*
X57660Y70900D01*
X57260D01*
X57660Y70500D01*
X57260Y70100D01*
X57660D01*
X58060Y69700D01*
X48060D02*
X48460Y70100D01*
X48860D01*
X48460Y70500D01*
X48860Y70900D01*
X48460D01*
X48060Y71300D01*
X47660Y70900D01*
X47260D01*
X47660Y70500D01*
X47260Y70100D01*
X47660D01*
X48060Y69700D01*
X38060D02*
X38460Y70100D01*
X38860D01*
X38460Y70500D01*
X38860Y70900D01*
X38460D01*
X38060Y71300D01*
X37660Y70900D01*
X37260D01*
X37660Y70500D01*
X37260Y70100D01*
X37660D01*
X38060Y69700D01*
X68060Y39700D02*
X68460Y40100D01*
X68860D01*
X68460Y40500D01*
X68860Y40900D01*
X68460D01*
X68060Y41300D01*
X67660Y40900D01*
X67260D01*
X67660Y40500D01*
X67260Y40100D01*
X67660D01*
X68060Y39700D01*
X58060D02*
X58460Y40100D01*
X58860D01*
X58460Y40500D01*
X58860Y40900D01*
X58460D01*
X58060Y41300D01*
X57660Y40900D01*
X57260D01*
X57660Y40500D01*
X57260Y40100D01*
X57660D01*
X58060Y39700D01*
X48060D02*
X48460Y40100D01*
X48860D01*
X48460Y40500D01*
X48860Y40900D01*
X48460D01*
X48060Y41300D01*
X47660Y40900D01*
X47260D01*
X47660Y40500D01*
X47260Y40100D01*
X47660D01*
X48060Y39700D01*
X38060D02*
X38460Y40100D01*
X38860D01*
X38460Y40500D01*
X38860Y40900D01*
X38460D01*
X38060Y41300D01*
X37660Y40900D01*
X37260D01*
X37660Y40500D01*
X37260Y40100D01*
X37660D01*
X38060Y39700D01*
X115000Y80200D02*
X115400Y80600D01*
X115800D01*
X115400Y81000D01*
X115800Y81400D01*
X115400D01*
X115000Y81800D01*
X114600Y81400D01*
X114200D01*
X114600Y81000D01*
X114200Y80600D01*
X114600D01*
X115000Y80200D01*
Y90200D02*
X115400Y90600D01*
X115800D01*
X115400Y91000D01*
X115800Y91400D01*
X115400D01*
X115000Y91800D01*
X114600Y91400D01*
X114200D01*
X114600Y91000D01*
X114200Y90600D01*
X114600D01*
X115000Y90200D01*
Y100200D02*
X115400Y100600D01*
X115800D01*
X115400Y101000D01*
X115800Y101400D01*
X115400D01*
X115000Y101800D01*
X114600Y101400D01*
X114200D01*
X114600Y101000D01*
X114200Y100600D01*
X114600D01*
X115000Y100200D01*
Y110200D02*
X115400Y110600D01*
X115800D01*
X115400Y111000D01*
X115800Y111400D01*
X115400D01*
X115000Y111800D01*
X114600Y111400D01*
X114200D01*
X114600Y111000D01*
X114200Y110600D01*
X114600D01*
X115000Y110200D01*
Y120200D02*
X115400Y120600D01*
X115800D01*
X115400Y121000D01*
X115800Y121400D01*
X115400D01*
X115000Y121800D01*
X114600Y121400D01*
X114200D01*
X114600Y121000D01*
X114200Y120600D01*
X114600D01*
X115000Y120200D01*
Y130200D02*
X115400Y130600D01*
X115800D01*
X115400Y131000D01*
X115800Y131400D01*
X115400D01*
X115000Y131800D01*
X114600Y131400D01*
X114200D01*
X114600Y131000D01*
X114200Y130600D01*
X114600D01*
X115000Y130200D01*
Y140200D02*
X115400Y140600D01*
X115800D01*
X115400Y141000D01*
X115800Y141400D01*
X115400D01*
X115000Y141800D01*
X114600Y141400D01*
X114200D01*
X114600Y141000D01*
X114200Y140600D01*
X114600D01*
X115000Y140200D01*
Y150200D02*
X115400Y150600D01*
X115800D01*
X115400Y151000D01*
X115800Y151400D01*
X115400D01*
X115000Y151800D01*
X114600Y151400D01*
X114200D01*
X114600Y151000D01*
X114200Y150600D01*
X114600D01*
X115000Y150200D01*
Y160200D02*
X115400Y160600D01*
X115800D01*
X115400Y161000D01*
X115800Y161400D01*
X115400D01*
X115000Y161800D01*
X114600Y161400D01*
X114200D01*
X114600Y161000D01*
X114200Y160600D01*
X114600D01*
X115000Y160200D01*
Y170200D02*
X115400Y170600D01*
X115800D01*
X115400Y171000D01*
X115800Y171400D01*
X115400D01*
X115000Y171800D01*
X114600Y171400D01*
X114200D01*
X114600Y171000D01*
X114200Y170600D01*
X114600D01*
X115000Y170200D01*
Y180200D02*
X115400Y180600D01*
X115800D01*
X115400Y181000D01*
X115800Y181400D01*
X115400D01*
X115000Y181800D01*
X114600Y181400D01*
X114200D01*
X114600Y181000D01*
X114200Y180600D01*
X114600D01*
X115000Y180200D01*
Y190200D02*
X115400Y190600D01*
X115800D01*
X115400Y191000D01*
X115800Y191400D01*
X115400D01*
X115000Y191800D01*
X114600Y191400D01*
X114200D01*
X114600Y191000D01*
X114200Y190600D01*
X114600D01*
X115000Y190200D01*
X195000Y40200D02*
X195400Y40600D01*
X195800D01*
X195400Y41000D01*
X195800Y41400D01*
X195400D01*
X195000Y41800D01*
X194600Y41400D01*
X194200D01*
X194600Y41000D01*
X194200Y40600D01*
X194600D01*
X195000Y40200D01*
Y50200D02*
X195400Y50600D01*
X195800D01*
X195400Y51000D01*
X195800Y51400D01*
X195400D01*
X195000Y51800D01*
X194600Y51400D01*
X194200D01*
X194600Y51000D01*
X194200Y50600D01*
X194600D01*
X195000Y50200D01*
Y60200D02*
X195400Y60600D01*
X195800D01*
X195400Y61000D01*
X195800Y61400D01*
X195400D01*
X195000Y61800D01*
X194600Y61400D01*
X194200D01*
X194600Y61000D01*
X194200Y60600D01*
X194600D01*
X195000Y60200D01*
Y70200D02*
X195400Y70600D01*
X195800D01*
X195400Y71000D01*
X195800Y71400D01*
X195400D01*
X195000Y71800D01*
X194600Y71400D01*
X194200D01*
X194600Y71000D01*
X194200Y70600D01*
X194600D01*
X195000Y70200D01*
Y80200D02*
X195400Y80600D01*
X195800D01*
X195400Y81000D01*
X195800Y81400D01*
X195400D01*
X195000Y81800D01*
X194600Y81400D01*
X194200D01*
X194600Y81000D01*
X194200Y80600D01*
X194600D01*
X195000Y80200D01*
Y90200D02*
X195400Y90600D01*
X195800D01*
X195400Y91000D01*
X195800Y91400D01*
X195400D01*
X195000Y91800D01*
X194600Y91400D01*
X194200D01*
X194600Y91000D01*
X194200Y90600D01*
X194600D01*
X195000Y90200D01*
Y100200D02*
X195400Y100600D01*
X195800D01*
X195400Y101000D01*
X195800Y101400D01*
X195400D01*
X195000Y101800D01*
X194600Y101400D01*
X194200D01*
X194600Y101000D01*
X194200Y100600D01*
X194600D01*
X195000Y100200D01*
Y110200D02*
X195400Y110600D01*
X195800D01*
X195400Y111000D01*
X195800Y111400D01*
X195400D01*
X195000Y111800D01*
X194600Y111400D01*
X194200D01*
X194600Y111000D01*
X194200Y110600D01*
X194600D01*
X195000Y110200D01*
Y120200D02*
X195400Y120600D01*
X195800D01*
X195400Y121000D01*
X195800Y121400D01*
X195400D01*
X195000Y121800D01*
X194600Y121400D01*
X194200D01*
X194600Y121000D01*
X194200Y120600D01*
X194600D01*
X195000Y120200D01*
Y130200D02*
X195400Y130600D01*
X195800D01*
X195400Y131000D01*
X195800Y131400D01*
X195400D01*
X195000Y131800D01*
X194600Y131400D01*
X194200D01*
X194600Y131000D01*
X194200Y130600D01*
X194600D01*
X195000Y130200D01*
Y140200D02*
X195400Y140600D01*
X195800D01*
X195400Y141000D01*
X195800Y141400D01*
X195400D01*
X195000Y141800D01*
X194600Y141400D01*
X194200D01*
X194600Y141000D01*
X194200Y140600D01*
X194600D01*
X195000Y140200D01*
Y150200D02*
X195400Y150600D01*
X195800D01*
X195400Y151000D01*
X195800Y151400D01*
X195400D01*
X195000Y151800D01*
X194600Y151400D01*
X194200D01*
X194600Y151000D01*
X194200Y150600D01*
X194600D01*
X195000Y150200D01*
Y160200D02*
X195400Y160600D01*
X195800D01*
X195400Y161000D01*
X195800Y161400D01*
X195400D01*
X195000Y161800D01*
X194600Y161400D01*
X194200D01*
X194600Y161000D01*
X194200Y160600D01*
X194600D01*
X195000Y160200D01*
Y170200D02*
X195400Y170600D01*
X195800D01*
X195400Y171000D01*
X195800Y171400D01*
X195400D01*
X195000Y171800D01*
X194600Y171400D01*
X194200D01*
X194600Y171000D01*
X194200Y170600D01*
X194600D01*
X195000Y170200D01*
Y180200D02*
X195400Y180600D01*
X195800D01*
X195400Y181000D01*
X195800Y181400D01*
X195400D01*
X195000Y181800D01*
X194600Y181400D01*
X194200D01*
X194600Y181000D01*
X194200Y180600D01*
X194600D01*
X195000Y180200D01*
Y190200D02*
X195400Y190600D01*
X195800D01*
X195400Y191000D01*
X195800Y191400D01*
X195400D01*
X195000Y191800D01*
X194600Y191400D01*
X194200D01*
X194600Y191000D01*
X194200Y190600D01*
X194600D01*
X195000Y190200D01*
X189200Y9200D02*
Y10800D01*
X190800D01*
Y9200D01*
X189200D01*
X9700Y219200D02*
Y220800D01*
X11300D01*
Y219200D01*
X9700D01*
X41500Y11200D02*
X41900Y11600D01*
X42300D01*
X41900Y12000D01*
X42300Y12400D01*
X41900D01*
X41500Y12800D01*
X41100Y12400D01*
X40700D01*
X41100Y12000D01*
X40700Y11600D01*
X41100D01*
X41500Y11200D01*
X51500D02*
X51900Y11600D01*
X52300D01*
X51900Y12000D01*
X52300Y12400D01*
X51900D01*
X51500Y12800D01*
X51100Y12400D01*
X50700D01*
X51100Y12000D01*
X50700Y11600D01*
X51100D01*
X51500Y11200D01*
X61500D02*
X61900Y11600D01*
X62300D01*
X61900Y12000D01*
X62300Y12400D01*
X61900D01*
X61500Y12800D01*
X61100Y12400D01*
X60700D01*
X61100Y12000D01*
X60700Y11600D01*
X61100D01*
X61500Y11200D01*
X71500D02*
X71900Y11600D01*
X72300D01*
X71900Y12000D01*
X72300Y12400D01*
X71900D01*
X71500Y12800D01*
X71100Y12400D01*
X70700D01*
X71100Y12000D01*
X70700Y11600D01*
X71100D01*
X71500Y11200D01*
X81500D02*
X81900Y11600D01*
X82300D01*
X81900Y12000D01*
X82300Y12400D01*
X81900D01*
X81500Y12800D01*
X81100Y12400D01*
X80700D01*
X81100Y12000D01*
X80700Y11600D01*
X81100D01*
X81500Y11200D01*
X91500D02*
X91900Y11600D01*
X92300D01*
X91900Y12000D01*
X92300Y12400D01*
X91900D01*
X91500Y12800D01*
X91100Y12400D01*
X90700D01*
X91100Y12000D01*
X90700Y11600D01*
X91100D01*
X91500Y11200D01*
X67260Y34754D02*
X67660Y35554D01*
X67260Y36354D01*
X68060Y35954D01*
X68860Y36354D01*
X68460Y35554D01*
X68860Y34754D01*
X68060Y35154D01*
X67260Y34754D01*
X86574Y48700D02*
X86974Y49500D01*
X86574Y50300D01*
X87374Y49900D01*
X88174Y50300D01*
X87774Y49500D01*
X88174Y48700D01*
X87374Y49100D01*
X86574Y48700D01*
X67200Y17700D02*
X67600Y18500D01*
X67200Y19300D01*
X68000Y18900D01*
X68800Y19300D01*
X68400Y18500D01*
X68800Y17700D01*
X68000Y18100D01*
X67200Y17700D01*
X98200Y77440D02*
X98600Y78240D01*
X98200Y79040D01*
X99000Y78640D01*
X99800Y79040D01*
X99400Y78240D01*
X99800Y77440D01*
X99000Y77840D01*
X98200Y77440D01*
X57200Y205700D02*
X57600Y206500D01*
X57200Y207300D01*
X58000Y206900D01*
X58800Y207300D01*
X58400Y206500D01*
X58800Y205700D01*
X58000Y206100D01*
X57200Y205700D01*
X80700Y125200D02*
X81100Y126000D01*
X80700Y126800D01*
X81500Y126400D01*
X82300Y126800D01*
X81900Y126000D01*
X82300Y125200D01*
X81500Y125600D01*
X80700Y125200D01*
X61212Y116196D02*
X61612Y116996D01*
X61212Y117796D01*
X62012Y117396D01*
X62812Y117796D01*
X62412Y116996D01*
X62812Y116196D01*
X62012Y116596D01*
X61212Y116196D01*
D12*
X16796Y186343D02*
G03*
X16796Y186343I-800J0D01*
G01*
X35300Y198153D02*
G03*
X35300Y198153I-800J0D01*
G01*
Y174531D02*
G03*
X35300Y174531I-800J0D01*
G01*
D13*
X200000Y-4937D02*
Y-2937D01*
X0Y-4937D02*
Y-2937D01*
X194000Y-5937D02*
X200000Y-3937D01*
X194000Y-1937D02*
X200000Y-3937D01*
X0D02*
X6000Y-5937D01*
X0Y-3937D02*
X6000Y-1937D01*
X125592Y-3937D02*
X200000D01*
X0D02*
X74408D01*
X-4937Y230000D02*
X-2937D01*
X-4937Y0D02*
X-2937D01*
X-3937Y230000D02*
X-1937Y224000D01*
X-5937D02*
X-3937Y230000D01*
Y0D02*
X-1937Y6000D01*
X-5937D02*
X-3937Y0D01*
Y143591D02*
Y230000D01*
Y0D02*
Y86409D01*
D14*
X79406Y-1538D02*
X75408D01*
Y-4537D01*
X77407Y-3537D01*
X78407D01*
X79406Y-4537D01*
Y-6536D01*
X78407Y-7536D01*
X76407D01*
X75408Y-6536D01*
X81406Y-2538D02*
X82406Y-1538D01*
X84405D01*
X85404Y-2538D01*
Y-6536D01*
X84405Y-7536D01*
X82406D01*
X81406Y-6536D01*
Y-2538D01*
X87404Y-7536D02*
Y-6536D01*
X88404D01*
Y-7536D01*
X87404D01*
X92402Y-2538D02*
X93402Y-1538D01*
X95401D01*
X96401Y-2538D01*
Y-3537D01*
X95401Y-4537D01*
X96401Y-5537D01*
Y-6536D01*
X95401Y-7536D01*
X93402D01*
X92402Y-6536D01*
Y-5537D01*
X93402Y-4537D01*
X92402Y-3537D01*
Y-2538D01*
X93402Y-4537D02*
X95401D01*
X106398Y-7536D02*
X104398Y-5537D01*
Y-3537D01*
X106398Y-1538D01*
X109397Y-7536D02*
Y-3537D01*
X110396D01*
X111396Y-4537D01*
Y-7536D01*
Y-4537D01*
X112396Y-3537D01*
X113396Y-4537D01*
Y-7536D01*
X115395D02*
Y-3537D01*
X116394D01*
X117394Y-4537D01*
Y-7536D01*
Y-4537D01*
X118394Y-3537D01*
X119394Y-4537D01*
Y-7536D01*
X121393D02*
X123392Y-5537D01*
Y-3537D01*
X121393Y-1538D01*
X-6336Y91407D02*
Y87409D01*
X-3337D01*
X-4337Y89408D01*
Y90408D01*
X-3337Y91407D01*
X-1338D01*
X-338Y90408D01*
Y88408D01*
X-1338Y87409D01*
X-5336Y93407D02*
X-6336Y94406D01*
Y96406D01*
X-5336Y97405D01*
X-4337D01*
X-3337Y96406D01*
X-2337Y97405D01*
X-1338D01*
X-338Y96406D01*
Y94406D01*
X-1338Y93407D01*
X-2337D01*
X-3337Y94406D01*
X-4337Y93407D01*
X-5336D01*
X-3337Y94406D02*
Y96406D01*
X-338Y99405D02*
X-1338D01*
Y100405D01*
X-338D01*
Y99405D01*
Y107402D02*
X-6336D01*
X-3337Y104403D01*
Y108402D01*
X-338Y114400D02*
Y110401D01*
X-4337Y114400D01*
X-5336D01*
X-6336Y113400D01*
Y111401D01*
X-5336Y110401D01*
X-338Y124397D02*
X-2337Y122397D01*
X-4337D01*
X-6336Y124397D01*
X-338Y127396D02*
X-4337D01*
Y128395D01*
X-3337Y129395D01*
X-338D01*
X-3337D01*
X-4337Y130395D01*
X-3337Y131395D01*
X-338D01*
Y133394D02*
X-4337D01*
Y134394D01*
X-3337Y135393D01*
X-338D01*
X-3337D01*
X-4337Y136393D01*
X-3337Y137393D01*
X-338D01*
Y139392D02*
X-2337Y141391D01*
X-4337D01*
X-6336Y139392D01*
M02*
